# Blender v2.78 (sub 0) OBJ File: ''
# www.blender.org
mtllib arrow2.mtl
o Cone
v 0.963953 0.011627 -0.567600
v 0.963953 -0.203558 -0.524797
v 0.963953 -0.385984 -0.402904
v 0.963953 -0.507877 -0.220479
v 0.963953 -0.550680 -0.005293
v 2.088566 0.011627 -0.005293
v 0.963953 -0.507877 0.209892
v 0.963953 -0.385984 0.392317
v 0.963953 -0.203559 0.514210
v 0.963953 0.011627 0.557013
v 0.963953 0.226812 0.514210
v 0.963952 0.409238 0.392317
v 0.963952 0.531130 0.209892
v 0.963952 0.573933 -0.005293
v 0.963952 0.531130 -0.220479
v 0.963952 0.409238 -0.402904
v 0.963953 0.226812 -0.524797
vn 0.4403 -0.1752 -0.8806
vn 0.4403 -0.4988 -0.7465
vn 0.4403 -0.7465 -0.4988
vn 0.4403 -0.8806 -0.1752
vn 0.4403 -0.8806 0.1752
vn 0.4403 -0.7465 0.4988
vn 0.4403 -0.4988 0.7465
vn 0.4403 -0.1752 0.8806
vn 0.4403 0.1752 0.8806
vn 0.4403 0.4988 0.7465
vn 0.4403 0.7465 0.4988
vn 0.4403 0.8806 0.1752
vn 0.4403 0.8806 -0.1752
vn 0.4403 0.7465 -0.4988
vn 0.4403 0.4988 -0.7465
vn 0.4403 0.1752 -0.8806
vn -1.0000 -0.0000 0.0000
usemtl None
s off
f 1//1 6//1 2//1
f 2//2 6//2 3//2
f 3//3 6//3 4//3
f 4//4 6//4 5//4
f 5//5 6//5 7//5
f 7//6 6//6 8//6
f 8//7 6//7 9//7
f 9//8 6//8 10//8
f 10//9 6//9 11//9
f 11//10 6//10 12//10
f 12//11 6//11 13//11
f 13//12 6//12 14//12
f 14//13 6//13 15//13
f 15//14 6//14 16//14
f 16//15 6//15 17//15
f 17//16 6//16 1//16
f 1//17 2//17 3//17 4//17 5//17 7//17 8//17 9//17 10//17 11//17 12//17 13//17 14//17 15//17 16//17 17//17
o Cube
v 1.243055 0.124001 0.124001
v 1.243055 0.124001 -0.124001
v -1.243055 0.124001 -0.124001
v -1.243055 0.124001 0.124001
v 1.243056 -0.124001 0.124001
v 1.243054 -0.124001 -0.124001
v -1.243056 -0.124001 -0.124001
v -1.243055 -0.124001 0.124001
vn 0.0000 1.0000 0.0000
vn 0.0000 -1.0000 0.0000
vn 1.0000 -0.0000 -0.0000
vn -0.0000 0.0000 -1.0000
vn -1.0000 0.0000 0.0000
vn 0.0000 -0.0000 1.0000
usemtl Material
s off
f 18//18 19//18 20//18 21//18
f 22//19 25//19 24//19 23//19
f 18//20 22//20 23//20 19//20
f 19//21 23//21 24//21 20//21
f 20//22 24//22 25//22 21//22
f 22//23 18//23 21//23 25//23
